<?xml version="1.0" encoding="utf-8"?>
<!-- Generator: Adobe Illustrator 22.0.1, SVG Export Plug-In . SVG Version: 6.00 Build 0)  -->
<svg xmlns="http://www.w3.org/2000/svg" width="84" height="46" viewBox="0 0 84 46" fill="none">
  <g clip-path="url(#clip0_2253_48644)">
    <path d="M45.5247 12.6756C45.6847 12.8227 45.8446 12.9379 45.9982 13.0275C46.1517 13.117 46.2925 13.1938 46.4204 13.2578C46.5803 13.0978 46.7851 12.8995 47.041 12.6628C47.2905 12.4261 47.5912 12.1574 47.9494 11.8503C48.1286 12.0294 48.3525 12.2214 48.6276 12.4325C48.9027 12.6436 49.2225 12.8675 49.6 13.1106C49.9391 12.7524 50.4061 12.1894 51.0075 11.4153C50.3421 10.7691 49.7791 10.3021 49.3121 10.0078C49.0242 10.3661 48.5252 10.8779 47.8343 11.5624C47.6743 11.3833 47.4632 11.185 47.2137 10.9674C46.9642 10.7499 46.6571 10.5004 46.3052 10.2253C45.5951 10.6924 45.0705 11.2681 44.7314 11.9463C44.8594 12.0742 44.9937 12.2022 45.1281 12.3237C45.2688 12.4453 45.3968 12.5604 45.5311 12.6756H45.5247Z" fill="white"/>
    <path d="M83.5582 21.0682C83.846 20.3901 83.9932 19.8591 83.9932 19.4688C83.9932 18.8227 83.7245 17.7479 83.1935 16.2444C82.9504 16.4364 82.7393 16.6987 82.5601 17.0185C82.285 17.5176 82.1059 17.8118 82.0291 17.8886V19.0786C82.0291 19.4688 82.0547 19.7951 82.0995 20.0702C82.1315 20.019 82.1763 19.9614 82.2339 19.8911C82.2914 19.8207 82.349 19.7311 82.413 19.6352L82.6305 20.3645C82.7265 20.6716 82.7777 20.9211 82.7777 21.113V21.2601C81.7604 22.0022 80.353 22.3733 78.5617 22.3733H77.666C77.3077 22.3733 77.0198 22.2901 76.7959 22.1302C76.54 21.9703 76.4057 21.7783 76.4057 21.548C76.4569 21.3241 76.5016 21.0938 76.5528 20.8571C76.604 20.6204 76.6552 20.3773 76.7256 20.115C76.7256 19.987 76.668 19.9102 76.5528 19.8975C76.3929 19.8975 76.2393 20.1342 76.0922 20.6012C75.977 20.9275 75.8747 21.1962 75.7787 21.4137C75.6828 21.6312 75.606 21.7911 75.5612 21.8871C75.2733 22.3413 74.9151 22.5588 74.4928 22.5396C74.3009 22.5396 74.1345 22.5077 74.0066 22.4437C74.1218 22.0854 74.2369 21.7272 74.3585 21.3625C74.48 20.9978 74.6144 20.6332 74.7615 20.2621C74.7615 20.1981 74.7295 20.1342 74.6655 20.0702C74.6016 20.019 74.5312 19.9998 74.448 19.9998C74.1409 20.582 73.8978 21.017 73.7187 21.3113C73.6227 21.4904 73.5332 21.6312 73.45 21.7463C73.0789 22.2134 72.5224 22.4309 71.7802 22.3989C71.6203 22.3797 71.4732 22.3797 71.3452 22.3861C71.2173 22.3925 71.0765 22.3989 70.9358 22.3989C70.5455 22.3989 70.2896 22.3477 70.1617 22.2518C70.2896 21.7527 70.3856 21.3241 70.4496 20.9786C70.5135 20.6332 70.5455 20.3709 70.5455 20.1917C70.5455 20.1086 70.4943 20.0702 70.3984 20.0702C70.1745 20.4732 69.9761 20.8059 69.8162 21.0618C69.6563 21.3177 69.5283 21.516 69.4259 21.644C69.0037 22.1622 68.5111 22.4181 67.9481 22.4181H67.8265C67.7754 22.4181 67.7242 22.4117 67.6538 22.3925C67.5706 22.3733 67.5067 22.3669 67.4619 22.3669H63.8665C63.8665 22.3669 63.2459 22.3669 63.054 22.3669H60.0727C60.0215 22.3669 59.8616 22.3925 59.5865 22.4373C59.3946 22.4693 59.2474 22.4437 59.1515 22.3669C61.429 20.7675 63.0284 18.4772 63.9496 15.5087C63.4634 15.0097 62.8748 14.7602 62.1775 14.7602C61.0131 14.7602 59.932 15.3424 58.9275 16.5067C58.9403 15.5855 58.8188 14.1205 58.5629 12.118C58.2558 9.84048 57.9231 8.4906 57.5713 8.06836C56.151 9.65495 55.4729 12.0476 55.5368 15.2464L55.6328 18.957L55.7032 19.1297C56.023 18.3684 56.2022 17.1401 56.2342 15.4447C56.2853 13.7494 56.4581 12.5211 56.7652 11.7598C56.8803 12.0348 56.9891 12.3867 57.0914 12.8154C57.1938 13.244 57.2962 13.7494 57.3921 14.3316C57.4881 14.8946 57.5585 15.4 57.5968 15.835C57.6352 16.27 57.6608 16.6475 57.6608 16.9738C57.6608 18.0422 57.3282 19.552 56.6692 21.5032C56.0678 21.9255 55.6072 22.1814 55.2873 22.2773C55.121 22.3221 54.8011 22.3477 54.3405 22.3605V22.3221C54.2253 22.3413 54.123 22.3477 54.027 22.3605C53.9438 22.3669 53.8479 22.3733 53.7455 22.3733C53.7263 22.3733 53.7135 22.3733 53.7007 22.3733C52.0758 22.3349 51.2633 21.5736 51.2633 20.0702V18.9314C51.1993 18.5284 50.9434 18.3237 50.4892 18.3237C49.747 18.3237 49.0561 18.8163 48.4291 19.8015C48.2692 20.0254 47.7958 20.9339 47.0217 22.5141C46.5355 23.4865 46.126 23.9663 45.7869 23.9663C45.1408 23.9663 44.6226 23.4481 44.2323 22.4117C44.0852 22.0086 43.9828 21.6056 43.9189 21.2153C43.8549 20.8187 43.8229 20.4284 43.8229 20.0382C43.8229 18.5668 44.1556 17.4024 44.8145 16.5451C45.5566 15.5599 46.625 15.0673 48.0133 15.0673H49.5039C49.8814 15.0673 50.1629 15.0481 50.342 15.0161C51.4424 14.8882 52.0374 14.5363 52.1333 13.9733C51.6023 14.3124 50.8666 14.4851 49.9262 14.4851H49.5167C49.3568 14.4851 49.1585 14.4787 48.9345 14.4595C48.7106 14.4467 48.5123 14.4339 48.3524 14.4339H47.9173C47.4823 14.4339 47.0857 14.4659 46.7274 14.5299C46.3691 14.5939 46.0556 14.709 45.7805 14.869C43.9253 15.9054 42.9912 17.6711 42.9912 20.1789C42.9912 21.4073 43.1512 22.6036 43.4774 23.768C43.9636 25.4185 44.6674 26.2438 45.5886 26.2438C46.0237 26.2438 46.4523 25.7512 46.8745 24.766C47.0665 24.3118 47.252 23.8575 47.4311 23.3969C47.6103 22.9363 47.8086 22.4885 48.0389 22.0534C48.282 21.5352 48.5635 21.1578 48.8898 20.9275C49.2096 20.6907 49.5615 20.5756 49.9326 20.5756C50.1245 20.5756 50.2716 20.646 50.3676 20.7931C50.3996 22.0022 50.5595 22.8851 50.8538 23.4353C51.2313 24.139 51.903 24.5037 52.8243 24.5741C52.8243 24.5805 52.8179 24.5933 52.8115 24.5997C52.9138 24.5997 52.997 24.5997 53.0866 24.5997H53.0994H53.7071C53.7071 24.5997 53.7071 24.5933 53.7071 24.5869C53.7199 24.5869 53.7327 24.5869 53.7391 24.5869C53.9886 24.5805 54.1805 24.5677 54.3085 24.5485C54.5004 24.5293 54.8843 24.4205 55.4473 24.2094C55.6072 24.1262 55.8055 24.0239 56.0294 23.9087C56.2534 23.7872 56.5285 23.6592 56.8547 23.5313C57.3409 24.2414 58.2942 24.5997 59.7144 24.5997H63.0348C63.0348 24.5997 63.1627 24.5997 63.2267 24.5997H66.9373L67.5643 24.6508C67.8905 24.6828 68.1784 24.6636 68.4343 24.5933C68.6902 24.5229 68.9077 24.4269 69.0869 24.3118C69.234 24.5037 69.5155 24.5997 69.9377 24.5997C70.5007 24.5997 70.9805 24.5869 71.3708 24.5613C71.761 24.5357 72.0681 24.5101 72.292 24.4781C72.4392 24.4653 72.5927 24.4781 72.7527 24.5293C72.9958 24.6125 73.2389 24.6508 73.482 24.6508C73.9042 24.67 74.2753 24.5869 74.5952 24.4077C74.6783 24.3438 74.7615 24.2734 74.8511 24.203C74.9406 24.1326 75.0238 24.0367 75.107 23.9215C75.2669 23.7424 75.3757 23.6528 75.4205 23.6528C75.5036 23.6528 75.5804 23.7872 75.6636 24.0623C76.0346 24.3182 76.3993 24.4781 76.7575 24.5549C76.7575 24.5677 76.7575 24.5805 76.7575 24.5997C77.0646 24.6508 77.4037 24.67 77.7748 24.67C79.4573 24.67 80.6665 24.4525 81.4086 24.0175C82.2147 23.5505 82.9312 22.5652 83.5454 21.0618L83.5582 21.0682ZM57.9103 20.5564C57.8783 20.1214 57.9359 19.6927 58.0959 19.2705C58.2494 18.8483 58.4797 18.4452 58.7868 18.0614C59.4521 17.2361 60.2198 16.8266 61.0899 16.8266C61.493 16.8266 61.8832 16.9354 62.2543 17.1401C61.333 18.4836 59.8936 19.7183 57.9423 20.8507L57.9167 20.5628L57.9103 20.5564Z" fill="white"/>
    <path d="M80.8965 27.0498L80.3143 26.2501C80.0264 25.8599 79.8025 25.668 79.6618 25.668C79.4506 25.668 79.1691 25.8727 78.8109 26.2757C78.3758 26.762 78.1008 27.037 77.9856 27.101V27.2482C78.0496 27.2993 78.4974 27.8112 79.3163 28.8028C79.7065 28.5277 80.2311 27.9455 80.8901 27.0562L80.8965 27.0498Z" fill="white"/>
    <path d="M46.6315 34.3056C46.8874 34.1905 47.0857 34.0305 47.2264 33.8258C47.3672 33.6211 47.4376 33.3908 47.4376 33.1349C47.4376 32.6295 47.2648 32.2392 46.9322 31.9641C46.5931 31.6954 46.1005 31.5547 45.4671 31.5547H43.0168V37.2165H45.5759C46.2028 37.2165 46.689 37.0758 47.0217 36.7943C47.3544 36.5128 47.5271 36.1098 47.5271 35.5916C47.5271 35.2845 47.4504 35.0222 47.3032 34.8047C47.1561 34.5871 46.9322 34.4208 46.6443 34.3056H46.6315ZM44.0788 32.4951H45.5055C46.0749 32.4951 46.3564 32.7318 46.3564 33.1989C46.3564 33.6659 46.0557 33.8706 45.4607 33.8706H44.0724V32.4951H44.0788ZM45.5823 36.2825H44.0788V34.8047H45.5375C46.1453 34.8047 46.4459 35.0414 46.4459 35.5148C46.4459 36.0202 46.158 36.2761 45.5759 36.2761L45.5823 36.2825Z" fill="white"/>
    <path d="M53.2719 33.9076L52.5873 33.8181C52.2355 33.7733 51.986 33.6965 51.826 33.5814C51.6661 33.4662 51.5893 33.3063 51.5893 33.0951C51.5893 32.8648 51.6789 32.6857 51.858 32.5641C52.0371 32.4362 52.3058 32.3786 52.6641 32.3786C53.0224 32.3786 53.2847 32.4426 53.4638 32.5641C53.6429 32.6921 53.7389 32.8904 53.7645 33.1655H54.7945C54.7497 32.6153 54.5514 32.1995 54.1867 31.9116C53.8285 31.6237 53.323 31.4766 52.6833 31.4766C52.0435 31.4766 51.4997 31.6301 51.1159 31.9308C50.732 32.2315 50.5401 32.6537 50.5401 33.1783C50.5401 34.0932 51.1159 34.6178 52.2611 34.7585L52.8624 34.8289C53.2143 34.8673 53.4638 34.944 53.6173 35.0656C53.7709 35.1808 53.8476 35.3535 53.8476 35.5774C53.8476 36.0828 53.4638 36.3387 52.6897 36.3387C52.293 36.3387 51.9988 36.2747 51.794 36.1404C51.5893 36.006 51.4678 35.7885 51.4294 35.4878H50.4058C50.4505 36.0636 50.6617 36.4986 51.0391 36.8057C51.4166 37.1064 51.9476 37.26 52.6385 37.26C53.3294 37.26 53.8988 37.1064 54.3019 36.8057C54.7049 36.505 54.9096 36.0636 54.9096 35.4942C54.9096 35.0336 54.7689 34.6753 54.4938 34.4066C54.2123 34.1443 53.8093 33.9716 53.2719 33.9012V33.9076Z" fill="white"/>
    <path d="M60.5526 33.9076L59.8744 33.8181C59.5226 33.7733 59.2731 33.6965 59.1131 33.5814C58.9532 33.4662 58.8764 33.3063 58.8764 33.0951C58.8764 32.8648 58.966 32.6857 59.1451 32.5641C59.3242 32.4362 59.5929 32.3786 59.9512 32.3786C60.3095 32.3786 60.5718 32.4426 60.7509 32.5641C60.93 32.6921 61.026 32.8904 61.0516 33.1655H62.0816C62.0368 32.6153 61.8385 32.1995 61.4738 31.9116C61.1156 31.6237 60.6102 31.4766 59.9704 31.4766C59.3306 31.4766 58.7869 31.6301 58.403 31.9308C58.0191 32.2315 57.8272 32.6537 57.8272 33.1783C57.8272 34.0932 58.403 34.6178 59.5482 34.7585L60.1495 34.8289C60.5014 34.8673 60.7509 34.944 60.9044 35.0656C61.058 35.1808 61.1348 35.3535 61.1348 35.5774C61.1348 36.0828 60.7509 36.3387 59.9768 36.3387C59.5802 36.3387 59.2859 36.2747 59.0811 36.1404C58.8764 36.006 58.7549 35.7885 58.7165 35.4878H57.6929C57.7377 36.0636 57.9488 36.4986 58.3262 36.8057C58.7037 37.1064 59.2347 37.26 59.9256 37.26C60.6166 37.26 61.1859 37.1064 61.589 36.8057C61.992 36.505 62.1968 36.0636 62.1968 35.4942C62.1968 35.0336 62.056 34.6753 61.7809 34.4066C61.4994 34.1443 61.0964 33.9716 60.559 33.9012L60.5526 33.9076Z" fill="white"/>
    <path d="M64.7939 32.4951H66.4893V37.2165H67.5641V32.4951H69.2594V31.5547H64.7939V32.4951Z" fill="white"/>
    <path d="M73.45 31.5547L71.1277 37.2165H72.2728L72.6823 36.1162H75.0814L75.4908 37.2165H76.636L74.3137 31.5547H73.4372H73.45ZM73.0214 35.2205L73.885 32.9174L74.7551 35.2205H73.0278H73.0214Z" fill="white"/>
    <path d="M82.9249 33.8898H80.5387V31.5547H79.4639V37.2165H80.5387V34.8238H82.9249V37.2165H83.9997V31.5547H82.9249V33.8898Z" fill="white"/>
    <path d="M1.75933 45.3395V20.3187C1.75933 15.7508 3.6722 12.0466 6.20564 9.1933C8.73267 6.33998 11.8739 4.37593 14.1642 3.4035L17.6573 1.91287L21.1503 3.4035C23.4343 4.37593 26.5819 6.33998 29.1025 9.1933C31.6296 12.053 33.5424 15.7572 33.5488 20.3187V45.3395H35.3081V20.3187C35.3081 15.2454 33.1586 11.1062 30.4204 8.02894C27.6759 4.93892 24.3555 2.86611 21.8413 1.79132L17.6509 0L13.4733 1.78492C10.9526 2.85971 7.63229 4.93892 4.89414 8.02254C2.14958 11.1062 0 15.239 0 20.3187V45.3395H1.75933Z" fill="white"/>
    <path d="M5.12451 41.9682V20.3189C5.12451 16.6403 6.71111 13.6334 8.8287 11.2855C10.9335 8.944 13.5757 7.31263 15.4822 6.50014L17.6509 5.57249L19.8197 6.50014C21.7262 7.31263 24.362 8.944 26.4732 11.2855C28.5844 13.6334 30.171 16.6403 30.171 20.3189V41.9682H31.9303V20.3189C31.9303 16.1157 30.0942 12.6738 27.7783 10.1084C25.456 7.53654 22.6474 5.7964 20.5107 4.88795L17.6509 3.66602L14.7912 4.88795C12.6544 5.8028 9.85231 7.53654 7.5236 10.1084C5.20128 12.6738 3.37158 16.1157 3.37158 20.3189V41.9682H5.13091H5.12451Z" fill="white"/>
    <path d="M8.496 38.5975V20.3196C8.496 17.5367 9.8011 15.1952 11.5348 13.3463C13.2558 11.5038 15.3926 10.2051 16.8064 9.6037L17.6573 9.23904L18.5082 9.6037C19.922 10.2051 22.0588 11.5038 23.7798 13.3463C25.5071 15.1952 26.8186 17.5431 26.8186 20.3196V38.6039H28.5779V20.3196C28.5779 16.9609 26.9914 14.1972 25.0657 12.1435C23.1272 10.0835 20.8433 8.68885 19.1991 7.98512L17.6637 7.32617L16.1283 7.98512C14.4841 8.68885 12.2002 10.0835 10.2681 12.1435C8.34245 14.1972 6.75586 16.9673 6.75586 20.3196V38.6039H8.51519L8.496 38.5975Z" fill="white"/>
    <path d="M11.8611 35.2325V20.3198C11.8611 19.3666 12.1106 18.4837 12.5264 17.6584C13.1534 16.4237 14.1706 15.3425 15.2198 14.4981C16.2626 13.6536 17.3374 13.0458 18.0027 12.7515L17.6445 11.9518L17.2862 12.7515C18.1755 13.1482 19.7813 14.095 21.0928 15.4193C21.7517 16.0846 22.3403 16.8396 22.7625 17.6584C23.1784 18.4837 23.4279 19.3602 23.4279 20.3198V35.2325H25.1872V20.3198C25.1872 19.0531 24.8481 17.8888 24.3299 16.8651C23.543 15.3233 22.3531 14.0886 21.1759 13.1354C19.9924 12.1821 18.8216 11.5168 18.0091 11.1521L17.6509 10.9922L17.2926 11.1521C16.2114 11.6383 14.4841 12.662 12.9551 14.1846C12.1938 14.9459 11.49 15.8415 10.9654 16.8651C10.4408 17.8888 10.1082 19.0531 10.1082 20.3198V35.2325H11.8675H11.8611Z" fill="white"/>
    <path d="M15.2326 31.8601V20.3189C15.2326 19.7047 15.5461 19.001 16.1091 18.3165C16.6657 17.6383 17.427 17.005 18.1371 16.5316L17.6509 15.8022L17.1647 16.5316C17.8748 17.005 18.6361 17.6383 19.1927 18.3165C19.7557 19.001 20.0756 19.7047 20.0692 20.3189V31.8601H21.8285V20.3189C21.8285 19.1162 21.2591 18.0734 20.5554 17.2033C19.8453 16.3332 18.9624 15.6167 18.1435 15.0665L17.6573 14.7402L17.1711 15.0665C16.3522 15.6167 15.4693 16.3332 14.7592 17.2033C14.0555 18.067 13.4925 19.1162 13.4861 20.3189V31.8601H15.2454H15.2326Z" fill="white"/>
  </g>
  <defs>
    <clipPath id="clip0_2253_48644">
      <rect width="84" height="45.3395" fill="white"/>
    </clipPath>
  </defs>
</svg>
